<svg width="220" height="24" viewBox="0 0 220 24" fill="none" xmlns="http://www.w3.org/2000/svg">
<path d="M45.24 24C45.4992 24 45.72 23.7851 45.72 23.52V12.36C45.72 12.36 46.32 13.44 47.4 15.24L52.08 23.28C52.2942 23.7288 52.7692 24 53.16 24H56.4V6H53.16C52.9442 6 52.68 6.1793 52.68 6.48V17.76L50.52 13.92L46.2 6.6C45.9898 6.22695 45.5374 6 45.12 6H42V24H45.24Z" fill="white"/>
<path d="M87.12 11.04H88.68C89.0776 11.04 89.4 10.7176 89.4 10.32V7.2H92.76V11.04H96V13.92H92.76V19.08C92.76 20.34 93.3669 20.88 94.44 20.88H96V24H93.96C91.1938 24 89.4 22.2086 89.4 19.2V13.92H87.12V11.04Z" fill="white"/>
<path d="M70.92 11.04V18.48C70.92 20.1604 70.2891 21.5771 69.36 22.56C68.4309 23.5429 67.1479 24 65.4 24C63.6521 24 62.2491 23.5429 61.32 22.56C60.4067 21.5771 59.76 20.1604 59.76 18.48V11.04H61.68C62.0894 11.04 62.4923 11.1146 62.76 11.4C63.0277 11.6695 63.12 11.8278 63.12 12.24V18.48C63.12 19.447 63.1748 20.0444 63.6 20.52C64.0252 20.9797 64.5497 21.12 65.4 21.12C66.2661 21.12 66.6548 20.9797 67.08 20.52C67.5052 20.0444 67.56 19.447 67.56 18.48V12.24C67.56 11.8278 67.6523 11.5654 67.92 11.28C68.1552 11.0293 68.4033 11.0352 68.76 11.04C68.8093 11.0407 68.9503 11.04 69 11.04H70.92Z" fill="white"/>
<path d="M81.12 17.28L85.2 11.04H82.08C81.6868 11.04 81.3374 11.1811 81.12 11.52L79.2 14.4L77.4 11.64C77.1826 11.3011 76.7132 11.04 76.32 11.04H73.32L77.4 17.16L72.96 24H76.08C76.47 24 76.8219 23.6145 77.04 23.28L79.2 20.04L81.48 23.4C81.6981 23.7345 82.05 24 82.44 24H85.56L81.12 17.28Z" fill="white"/>
<path d="M20.16 24H33.48C33.9051 24.0001 34.3119 23.8507 34.68 23.64C35.0481 23.4293 35.4276 23.1649 35.64 22.8C35.8524 22.4351 36.0002 22.0212 36 21.5999C35.9998 21.1786 35.8528 20.7648 35.64 20.4001L26.64 4.92C26.4276 4.5552 26.168 4.29063 25.8 4.08C25.432 3.86937 24.905 3.72 24.48 3.72C24.055 3.72 23.648 3.86937 23.28 4.08C22.912 4.29063 22.6524 4.5552 22.44 4.92L20.16 8.88L15.6 1.19972C15.3874 0.834941 15.1281 0.45059 14.76 0.24C14.3919 0.0294104 13.985 0 13.56 0C13.1349 0 12.7281 0.0294104 12.36 0.24C11.9919 0.45059 11.6126 0.834941 11.4 1.19972L0.24 20.4001C0.0272375 20.7648 0.000185174 21.1786 2.29191e-07 21.5999C-0.000184716 22.0212 0.0275578 22.4351 0.24 22.7999C0.452442 23.1648 0.831894 23.4293 1.2 23.64C1.56811 23.8507 1.97493 24.0001 2.4 24H10.8C14.1284 24 16.551 22.5069 18.24 19.68L22.32 12.6L24.48 8.88L31.08 20.16H22.32L20.16 24ZM10.68 20.16H4.8L13.56 5.04L18 12.6L15.059 17.727C13.9373 19.5612 12.6585 20.16 10.68 20.16Z" fill="#00DC82"/>
<path d="M108.96 24C107.441 24 106.133 23.6813 104.88 23.04C103.627 22.3986 102.616 21.427 101.88 20.16C101.144 18.8929 100.8 17.3832 100.8 15.5999C100.8 13.8167 101.144 12.307 101.88 11.04C102.632 9.77291 103.627 8.80129 104.88 8.15995C106.133 7.51861 107.576 7.19995 109.08 7.19995C110.443 7.19995 111.583 7.43504 112.68 7.91995C113.792 8.40487 114.766 9.06833 115.44 9.95995C116.129 10.8516 116.499 11.9162 116.64 13.0893L112.92 13.08C112.81 12.2353 112.456 11.5718 111.72 11.04C110.984 10.5081 110.114 10.2 109.08 10.2C108.187 10.2 107.4 10.3776 106.68 10.8C105.975 11.2067 105.407 11.9065 105 12.72C104.593 13.5177 104.28 14.4581 104.28 15.5999C104.28 16.7418 104.593 17.7865 105 18.6C105.407 19.3977 105.855 19.9932 106.56 20.4C107.28 20.8067 108.187 21 109.08 21C110.129 21 110.984 20.6762 111.72 20.16C112.472 19.6281 112.899 18.9646 113.04 18.12H116.52C116.426 19.2775 116.113 20.3483 115.44 21.24C114.782 22.1316 113.912 22.7794 112.8 23.28C111.703 23.7649 110.354 24 108.96 24Z" fill="#00DC82"/>
<path d="M124.08 24C122.89 24 121.795 23.7962 120.84 23.28C119.884 22.7481 119.212 21.9229 118.68 21C118.147 20.0614 117.84 19.0375 117.84 17.88C117.84 16.7224 118.147 15.6829 118.68 14.76C119.212 13.8214 119.884 13.1162 120.84 12.6C121.795 12.0681 122.89 11.76 124.08 11.76C125.27 11.76 126.364 12.0681 127.32 12.6C128.275 13.1162 128.947 13.8214 129.48 14.76C130.012 15.6829 130.32 16.7224 130.32 17.88C130.32 19.0375 130.012 20.0614 129.48 21C128.947 21.9229 128.275 22.7481 127.32 23.28C126.364 23.7962 125.27 24 124.08 24ZM124.08 21.24C124.957 21.24 125.692 20.89 126.24 20.28C126.788 19.6699 127.08 18.8498 127.08 17.88C127.08 16.8945 126.788 16.09 126.24 15.48C125.692 14.8699 124.957 14.64 124.08 14.64C123.203 14.64 122.468 14.8699 121.92 15.48C121.372 16.09 121.08 16.8945 121.08 17.88C121.08 18.8498 121.372 19.6699 121.92 20.28C122.468 20.89 123.203 21.24 124.08 21.24Z" fill="#00DC82"/>
<path d="M132.12 24V12.12H135.36V13.8C135.689 13.2368 136.236 12.8084 136.8 12.48C137.379 12.1358 137.952 12 138.72 12C140.553 12 141.86 12.7208 142.44 14.16C142.738 13.5499 143.175 13.0067 143.88 12.6C144.6 12.1776 145.371 12 146.28 12C147.126 12 147.918 12.2245 148.56 12.6C149.202 12.9754 149.655 13.503 150 14.16C150.36 14.8013 150.6 15.5222 150.6 16.32V24H147.36V17.28C147.36 16.5135 147.152 15.9336 146.76 15.48C146.384 15.0107 145.826 14.76 145.2 14.76C144.526 14.76 144.047 15.0107 143.64 15.48C143.233 15.9336 143.04 16.5135 143.04 17.28V24H139.68V17.28C139.68 16.5135 139.576 15.9336 139.2 15.48C138.824 15.0107 138.266 14.76 137.64 14.76C136.966 14.76 136.487 15.0107 136.08 15.48C135.673 15.9336 135.36 16.5135 135.36 17.28V24H132.12Z" fill="#00DC82"/>
<path d="M153 24V12.24H156.24V13.8C156.569 13.2368 157.116 12.8084 157.68 12.48C158.259 12.1358 158.832 12 159.6 12C161.433 12 162.62 12.7208 163.2 14.16C163.498 13.5499 164.055 13.0067 164.76 12.6C165.48 12.1776 166.251 12 167.16 12C168.006 12 168.798 12.2245 169.44 12.6C170.082 12.9754 170.535 13.503 170.88 14.16C171.24 14.8013 171.48 15.5222 171.48 16.32V24H168.24V17.28C168.24 16.5135 168.032 15.9336 167.64 15.48C167.264 15.0107 166.706 14.76 166.08 14.76C165.406 14.76 164.927 15.0107 164.52 15.48C164.113 15.9336 163.92 16.5135 163.92 17.28V24H160.56V17.28C160.56 16.5135 160.336 15.9336 159.96 15.48C159.584 15.0107 159.146 14.76 158.52 14.76C157.846 14.76 157.247 15.0107 156.84 15.48C156.433 15.9336 156.24 16.5135 156.24 17.28V24H153Z" fill="#00DC82"/>
<path d="M184.92 19.7999C184.685 21.067 184.034 22.1535 183 22.92C181.966 23.6864 180.737 24 179.28 24C177.996 24 176.964 23.7387 176.04 23.16C175.131 22.5655 174.35 21.8185 173.88 20.88C173.41 19.9414 173.16 18.9124 173.16 17.88C173.16 16.8319 173.457 15.8029 173.88 14.88C174.319 13.957 174.923 13.2987 175.8 12.72C176.693 12.1412 177.771 11.76 179.04 11.76C180.356 11.76 181.523 12.0368 182.4 12.6C183.277 13.1631 183.913 13.884 184.32 14.76C184.743 15.6359 184.92 16.5501 184.92 17.52C184.92 17.8797 184.951 18.2558 184.92 18.6H176.4C176.525 19.4446 176.859 20.155 177.36 20.64C177.877 21.1092 178.465 21.36 179.28 21.36C179.938 21.36 180.537 21.2502 180.96 21C181.383 20.734 181.675 20.3005 181.8 19.7999H184.92ZM179.04 14.16C178.288 14.16 177.679 14.3689 177.24 14.76C176.801 15.1354 176.541 15.7465 176.4 16.56H181.68C181.633 15.8717 181.414 15.3179 180.96 14.88C180.506 14.4263 179.807 14.16 179.04 14.16Z" fill="#00DC82"/>
<path d="M192.36 14.88C191.577 14.88 191.072 15.2455 190.68 15.84C190.288 16.4344 189.96 17.1919 189.96 18.24L190.08 24H186.72V12.12H190.08V14.16C190.393 13.4404 190.706 12.8972 191.16 12.6C191.63 12.3027 192.224 12.24 192.96 12.24H194.28V14.88H192.36Z" fill="#00DC82"/>
<path d="M201 24C199.81 24 198.7 23.6918 197.76 23.16C196.836 22.6281 196.117 21.9229 195.6 21C195.099 20.0614 194.88 19.0219 194.88 17.88C194.88 16.7381 195.099 15.6829 195.6 14.76C196.117 13.8214 196.836 13.1318 197.76 12.6C198.7 12.0681 199.81 11.76 201 11.76C202.034 11.76 202.914 11.9689 203.76 12.36C204.621 12.751 205.283 13.336 205.8 14.04C206.332 14.7439 206.697 15.5483 206.76 16.44H203.4C203.306 15.9081 203.014 15.4641 202.56 15.12C202.106 14.7758 201.595 14.64 201 14.64C200.138 14.64 199.461 14.8699 198.96 15.48C198.459 16.09 198.24 16.8945 198.24 17.88C198.24 18.8654 198.459 19.6699 198.96 20.28C199.477 20.8744 200.243 21.24 201.12 21.24C201.715 21.24 202.241 20.9684 202.68 20.64C203.118 20.3115 203.395 19.9718 203.52 19.44H206.88C206.77 20.3003 206.348 21.016 205.8 21.72C205.252 22.4239 204.621 22.9932 203.76 23.4C202.914 23.791 202.002 24 201 24Z" fill="#00DC82"/>
<path d="M219.6 19.7999C219.365 21.067 218.714 22.0335 217.68 22.8C216.646 23.5664 215.417 24 213.96 24C212.676 24 211.524 23.7387 210.6 23.16C209.691 22.5655 209.03 21.8185 208.56 20.88C208.09 19.9414 207.84 18.9124 207.84 17.88C207.84 16.8319 208.137 15.8029 208.56 14.88C208.999 13.957 209.603 13.2987 210.48 12.72C211.373 12.1412 212.451 11.76 213.72 11.76C215.036 11.76 216.083 12.0368 216.96 12.6C217.837 13.1631 218.473 13.884 218.88 14.76C219.303 15.6359 219.6 16.5501 219.6 17.52C219.6 17.8797 219.511 18.2558 219.48 18.6H210.96C211.085 19.4446 211.419 20.155 211.92 20.64C212.437 21.1092 213.145 21.36 213.96 21.36C214.618 21.36 215.097 21.2502 215.52 21C215.943 20.734 216.235 20.3005 216.36 19.7999H219.6ZM213.72 14.16C212.968 14.16 212.359 14.3689 211.92 14.76C211.481 15.1354 211.221 15.7465 211.08 16.56H216.36C216.313 15.8717 215.974 15.3179 215.52 14.88C215.066 14.4263 214.487 14.16 213.72 14.16Z" fill="#00DC82"/>
</svg>
